<mxfile host="app.diagrams.net" modified="2022-05-17T08:40:10.640Z" agent="5.0 (Macintosh; Intel Mac OS X 10_15_7) AppleWebKit/537.36 (KHTML, like Gecko) Chrome/101.0.4951.64 Safari/537.36" etag="qGamMkeoQlicTAw_AX2c" version="18.0.5" type="github">
  <diagram id="OAQBumTCi4VNMYvm5W2r" name="第 1 页">
    <mxGraphModel dx="2066" dy="1129" grid="1" gridSize="10" guides="1" tooltips="1" connect="1" arrows="1" fold="1" page="1" pageScale="1" pageWidth="827" pageHeight="1169" math="0" shadow="0">
      <root>
        <mxCell id="0" />
        <mxCell id="1" parent="0" />
        <mxCell id="h8ZU28KvVE-qXobPjvcc-4" style="rounded=0;orthogonalLoop=1;jettySize=auto;html=1;exitX=0.5;exitY=1;exitDx=0;exitDy=0;fontSize=18;entryX=0.5;entryY=0;entryDx=0;entryDy=0;strokeWidth=3;endArrow=none;endFill=0;" edge="1" parent="1" source="h8ZU28KvVE-qXobPjvcc-1" target="h8ZU28KvVE-qXobPjvcc-2">
          <mxGeometry relative="1" as="geometry" />
        </mxCell>
        <mxCell id="h8ZU28KvVE-qXobPjvcc-5" style="rounded=0;orthogonalLoop=1;jettySize=auto;html=1;exitX=0.5;exitY=1;exitDx=0;exitDy=0;fontSize=18;entryX=0.5;entryY=0;entryDx=0;entryDy=0;strokeWidth=3;endArrow=none;endFill=0;" edge="1" parent="1" source="h8ZU28KvVE-qXobPjvcc-1" target="h8ZU28KvVE-qXobPjvcc-3">
          <mxGeometry relative="1" as="geometry" />
        </mxCell>
        <mxCell id="h8ZU28KvVE-qXobPjvcc-1" value="&lt;b&gt;&lt;font style=&quot;font-size: 18px;&quot;&gt;构建&lt;/font&gt;&lt;/b&gt;" style="rounded=1;whiteSpace=wrap;html=1;strokeWidth=2;" vertex="1" parent="1">
          <mxGeometry x="350" y="40" width="120" height="60" as="geometry" />
        </mxCell>
        <mxCell id="h8ZU28KvVE-qXobPjvcc-6" style="rounded=0;orthogonalLoop=1;jettySize=auto;html=1;exitX=0.5;exitY=1;exitDx=0;exitDy=0;fontSize=18;entryX=0.5;entryY=0;entryDx=0;entryDy=0;strokeWidth=3;" edge="1" parent="1" source="h8ZU28KvVE-qXobPjvcc-2" target="h8ZU28KvVE-qXobPjvcc-7">
          <mxGeometry relative="1" as="geometry">
            <mxPoint x="110" y="260" as="targetPoint" />
          </mxGeometry>
        </mxCell>
        <mxCell id="h8ZU28KvVE-qXobPjvcc-10" style="edgeStyle=none;rounded=0;orthogonalLoop=1;jettySize=auto;html=1;exitX=0.5;exitY=1;exitDx=0;exitDy=0;entryX=0.5;entryY=0;entryDx=0;entryDy=0;fontSize=18;strokeWidth=3;" edge="1" parent="1" source="h8ZU28KvVE-qXobPjvcc-2" target="h8ZU28KvVE-qXobPjvcc-8">
          <mxGeometry relative="1" as="geometry" />
        </mxCell>
        <mxCell id="h8ZU28KvVE-qXobPjvcc-11" style="edgeStyle=none;rounded=0;orthogonalLoop=1;jettySize=auto;html=1;exitX=0.5;exitY=1;exitDx=0;exitDy=0;entryX=0.5;entryY=0;entryDx=0;entryDy=0;fontSize=18;strokeWidth=3;" edge="1" parent="1" source="h8ZU28KvVE-qXobPjvcc-2" target="h8ZU28KvVE-qXobPjvcc-9">
          <mxGeometry relative="1" as="geometry" />
        </mxCell>
        <mxCell id="h8ZU28KvVE-qXobPjvcc-2" value="&lt;b&gt;&lt;font style=&quot;font-size: 18px;&quot;&gt;自动&lt;/font&gt;&lt;/b&gt;" style="rounded=1;whiteSpace=wrap;html=1;strokeWidth=2;" vertex="1" parent="1">
          <mxGeometry x="220" y="130" width="120" height="60" as="geometry" />
        </mxCell>
        <mxCell id="h8ZU28KvVE-qXobPjvcc-3" value="&lt;span style=&quot;font-size: 18px;&quot;&gt;&lt;b&gt;手动&lt;/b&gt;&lt;/span&gt;" style="rounded=1;whiteSpace=wrap;html=1;strokeWidth=2;" vertex="1" parent="1">
          <mxGeometry x="482" y="130" width="120" height="60" as="geometry" />
        </mxCell>
        <mxCell id="h8ZU28KvVE-qXobPjvcc-7" value="合并 Master" style="whiteSpace=wrap;html=1;fontSize=18;strokeWidth=2;" vertex="1" parent="1">
          <mxGeometry x="90" y="230" width="120" height="60" as="geometry" />
        </mxCell>
        <mxCell id="h8ZU28KvVE-qXobPjvcc-8" value="状态流转" style="whiteSpace=wrap;html=1;fontSize=18;strokeWidth=2;" vertex="1" parent="1">
          <mxGeometry x="220" y="230" width="120" height="60" as="geometry" />
        </mxCell>
        <mxCell id="h8ZU28KvVE-qXobPjvcc-9" value="代码提交" style="whiteSpace=wrap;html=1;fontSize=18;strokeWidth=2;" vertex="1" parent="1">
          <mxGeometry x="350" y="230" width="120" height="60" as="geometry" />
        </mxCell>
        <mxCell id="h8ZU28KvVE-qXobPjvcc-14" value="" style="edgeStyle=none;rounded=0;orthogonalLoop=1;jettySize=auto;html=1;fontSize=18;endArrow=classicThin;endFill=1;strokeWidth=3;" edge="1" parent="1" source="h8ZU28KvVE-qXobPjvcc-12" target="h8ZU28KvVE-qXobPjvcc-13">
          <mxGeometry relative="1" as="geometry" />
        </mxCell>
        <mxCell id="h8ZU28KvVE-qXobPjvcc-36" value="AST 解析" style="edgeLabel;html=1;align=center;verticalAlign=middle;resizable=0;points=[];fontSize=18;" vertex="1" connectable="0" parent="h8ZU28KvVE-qXobPjvcc-14">
          <mxGeometry x="0.1333" relative="1" as="geometry">
            <mxPoint x="-46" y="-4" as="offset" />
          </mxGeometry>
        </mxCell>
        <mxCell id="h8ZU28KvVE-qXobPjvcc-12" value="解析组件" style="rounded=1;whiteSpace=wrap;html=1;fontSize=18;strokeWidth=2;fillColor=#f5f5f5;fontColor=#333333;strokeColor=#666666;fontStyle=1" vertex="1" parent="1">
          <mxGeometry x="86.13" y="400" width="120" height="60" as="geometry" />
        </mxCell>
        <mxCell id="h8ZU28KvVE-qXobPjvcc-19" value="" style="edgeStyle=none;rounded=0;orthogonalLoop=1;jettySize=auto;html=1;fontSize=18;endArrow=none;endFill=0;strokeWidth=3;exitX=1;exitY=0.5;exitDx=0;exitDy=0;" edge="1" parent="1" source="h8ZU28KvVE-qXobPjvcc-13" target="h8ZU28KvVE-qXobPjvcc-15">
          <mxGeometry relative="1" as="geometry" />
        </mxCell>
        <mxCell id="h8ZU28KvVE-qXobPjvcc-21" value="" style="edgeStyle=none;rounded=0;orthogonalLoop=1;jettySize=auto;html=1;fontSize=18;endArrow=none;endFill=0;strokeWidth=3;exitX=1;exitY=0.5;exitDx=0;exitDy=0;" edge="1" parent="1" source="h8ZU28KvVE-qXobPjvcc-13" target="h8ZU28KvVE-qXobPjvcc-20">
          <mxGeometry relative="1" as="geometry">
            <mxPoint x="230" y="560" as="sourcePoint" />
          </mxGeometry>
        </mxCell>
        <mxCell id="h8ZU28KvVE-qXobPjvcc-23" value="" style="edgeStyle=none;rounded=0;orthogonalLoop=1;jettySize=auto;html=1;fontSize=18;endArrow=none;endFill=0;strokeWidth=3;exitX=1;exitY=0.5;exitDx=0;exitDy=0;" edge="1" parent="1" source="h8ZU28KvVE-qXobPjvcc-13" target="h8ZU28KvVE-qXobPjvcc-22">
          <mxGeometry relative="1" as="geometry" />
        </mxCell>
        <mxCell id="h8ZU28KvVE-qXobPjvcc-25" value="" style="edgeStyle=none;rounded=0;orthogonalLoop=1;jettySize=auto;html=1;fontSize=18;endArrow=classicThin;endFill=1;strokeWidth=3;" edge="1" parent="1" source="h8ZU28KvVE-qXobPjvcc-13" target="h8ZU28KvVE-qXobPjvcc-24">
          <mxGeometry relative="1" as="geometry" />
        </mxCell>
        <mxCell id="h8ZU28KvVE-qXobPjvcc-37" value="过滤" style="edgeLabel;html=1;align=center;verticalAlign=middle;resizable=0;points=[];fontSize=18;" vertex="1" connectable="0" parent="h8ZU28KvVE-qXobPjvcc-25">
          <mxGeometry x="0.32" y="-2" relative="1" as="geometry">
            <mxPoint x="-34" y="-3" as="offset" />
          </mxGeometry>
        </mxCell>
        <mxCell id="h8ZU28KvVE-qXobPjvcc-13" value="方法" style="whiteSpace=wrap;html=1;fontSize=18;rounded=1;strokeWidth=2;fillColor=#f5f5f5;fontColor=#333333;strokeColor=#666666;fontStyle=1" vertex="1" parent="1">
          <mxGeometry x="86.13" y="520" width="120" height="60" as="geometry" />
        </mxCell>
        <mxCell id="h8ZU28KvVE-qXobPjvcc-15" value="名称" style="ellipse;whiteSpace=wrap;html=1;fontSize=18;rounded=1;strokeWidth=2;fillColor=#f8cecc;strokeColor=#b85450;" vertex="1" parent="1">
          <mxGeometry x="280" y="420" width="120" height="60" as="geometry" />
        </mxCell>
        <mxCell id="h8ZU28KvVE-qXobPjvcc-20" value="参数" style="ellipse;whiteSpace=wrap;html=1;fontSize=18;rounded=1;strokeWidth=2;fillColor=#f8cecc;strokeColor=#b85450;" vertex="1" parent="1">
          <mxGeometry x="294" y="500" width="120" height="60" as="geometry" />
        </mxCell>
        <mxCell id="h8ZU28KvVE-qXobPjvcc-22" value="方法体调用函数" style="ellipse;whiteSpace=wrap;html=1;fontSize=18;rounded=1;strokeWidth=2;fillColor=#f8cecc;strokeColor=#b85450;" vertex="1" parent="1">
          <mxGeometry x="290" y="580" width="148" height="60" as="geometry" />
        </mxCell>
        <mxCell id="h8ZU28KvVE-qXobPjvcc-27" value="" style="edgeStyle=none;rounded=0;orthogonalLoop=1;jettySize=auto;html=1;fontSize=18;endArrow=classicThin;endFill=1;strokeWidth=3;" edge="1" parent="1" source="h8ZU28KvVE-qXobPjvcc-24" target="h8ZU28KvVE-qXobPjvcc-26">
          <mxGeometry relative="1" as="geometry" />
        </mxCell>
        <mxCell id="h8ZU28KvVE-qXobPjvcc-38" value="生成" style="edgeLabel;html=1;align=center;verticalAlign=middle;resizable=0;points=[];fontSize=18;" vertex="1" connectable="0" parent="h8ZU28KvVE-qXobPjvcc-27">
          <mxGeometry x="-0.2" relative="1" as="geometry">
            <mxPoint x="-36" as="offset" />
          </mxGeometry>
        </mxCell>
        <mxCell id="h8ZU28KvVE-qXobPjvcc-24" value="匹配组件导包资源，判断哪些资源是在方法内被调用的" style="whiteSpace=wrap;html=1;fontSize=18;rounded=1;strokeWidth=2;fillColor=#f5f5f5;fontColor=#333333;strokeColor=#666666;fontStyle=1" vertex="1" parent="1">
          <mxGeometry x="21.879999999999995" y="630" width="248.5" height="70" as="geometry" />
        </mxCell>
        <mxCell id="h8ZU28KvVE-qXobPjvcc-29" value="" style="edgeStyle=none;rounded=0;orthogonalLoop=1;jettySize=auto;html=1;fontSize=18;endArrow=classicThin;endFill=1;strokeWidth=3;" edge="1" parent="1" source="h8ZU28KvVE-qXobPjvcc-26" target="h8ZU28KvVE-qXobPjvcc-28">
          <mxGeometry relative="1" as="geometry" />
        </mxCell>
        <mxCell id="h8ZU28KvVE-qXobPjvcc-39" value="传输" style="edgeLabel;html=1;align=center;verticalAlign=middle;resizable=0;points=[];fontSize=18;" vertex="1" connectable="0" parent="h8ZU28KvVE-qXobPjvcc-29">
          <mxGeometry x="-0.0467" y="3" relative="1" as="geometry">
            <mxPoint x="-2" y="-17" as="offset" />
          </mxGeometry>
        </mxCell>
        <mxCell id="h8ZU28KvVE-qXobPjvcc-26" value="方法节点" style="whiteSpace=wrap;html=1;fontSize=18;rounded=1;strokeWidth=2;fillColor=#f5f5f5;fontColor=#333333;strokeColor=#666666;fontStyle=1" vertex="1" parent="1">
          <mxGeometry x="86.13" y="750" width="120" height="60" as="geometry" />
        </mxCell>
        <mxCell id="h8ZU28KvVE-qXobPjvcc-31" value="" style="edgeStyle=none;rounded=0;orthogonalLoop=1;jettySize=auto;html=1;fontSize=18;endArrow=classicThin;endFill=1;strokeWidth=3;" edge="1" parent="1" source="h8ZU28KvVE-qXobPjvcc-28" target="h8ZU28KvVE-qXobPjvcc-30">
          <mxGeometry relative="1" as="geometry">
            <Array as="points" />
          </mxGeometry>
        </mxCell>
        <mxCell id="h8ZU28KvVE-qXobPjvcc-40" value="存储" style="edgeLabel;html=1;align=center;verticalAlign=middle;resizable=0;points=[];fontSize=18;" vertex="1" connectable="0" parent="h8ZU28KvVE-qXobPjvcc-31">
          <mxGeometry x="0.3333" y="-4" relative="1" as="geometry">
            <mxPoint x="-11" y="-24" as="offset" />
          </mxGeometry>
        </mxCell>
        <mxCell id="h8ZU28KvVE-qXobPjvcc-28" value="TestHub" style="whiteSpace=wrap;html=1;fontSize=18;rounded=1;strokeWidth=2;fillColor=#f5f5f5;fontColor=#333333;strokeColor=#666666;fontStyle=1" vertex="1" parent="1">
          <mxGeometry x="259.63" y="750" width="120" height="60" as="geometry" />
        </mxCell>
        <mxCell id="h8ZU28KvVE-qXobPjvcc-33" value="" style="edgeStyle=none;rounded=0;orthogonalLoop=1;jettySize=auto;html=1;fontSize=18;endArrow=classicThin;endFill=1;strokeWidth=3;entryX=0;entryY=0.5;entryDx=0;entryDy=0;" edge="1" parent="1" target="h8ZU28KvVE-qXobPjvcc-32">
          <mxGeometry relative="1" as="geometry">
            <mxPoint x="559.63" y="780" as="sourcePoint" />
          </mxGeometry>
        </mxCell>
        <mxCell id="h8ZU28KvVE-qXobPjvcc-41" value="存储" style="edgeLabel;html=1;align=center;verticalAlign=middle;resizable=0;points=[];fontSize=18;" vertex="1" connectable="0" parent="h8ZU28KvVE-qXobPjvcc-33">
          <mxGeometry x="-0.0571" relative="1" as="geometry">
            <mxPoint x="17" y="-33" as="offset" />
          </mxGeometry>
        </mxCell>
        <mxCell id="h8ZU28KvVE-qXobPjvcc-30" value="存储方法节点" style="whiteSpace=wrap;html=1;fontSize=18;rounded=1;strokeWidth=2;fillColor=#f5f5f5;fontColor=#333333;strokeColor=#666666;fontStyle=1" vertex="1" parent="1">
          <mxGeometry x="439.63" y="750" width="120" height="60" as="geometry" />
        </mxCell>
        <mxCell id="h8ZU28KvVE-qXobPjvcc-35" value="" style="edgeStyle=none;rounded=0;orthogonalLoop=1;jettySize=auto;html=1;fontSize=18;endArrow=classicThin;endFill=1;strokeWidth=3;exitX=1;exitY=0.5;exitDx=0;exitDy=0;entryX=0;entryY=0.5;entryDx=0;entryDy=0;" edge="1" parent="1" source="h8ZU28KvVE-qXobPjvcc-30" target="h8ZU28KvVE-qXobPjvcc-34">
          <mxGeometry relative="1" as="geometry" />
        </mxCell>
        <mxCell id="h8ZU28KvVE-qXobPjvcc-32" value="构建方法与方法间的关系（INVOKE）" style="whiteSpace=wrap;html=1;fontSize=18;rounded=1;strokeWidth=2;fillColor=#f5f5f5;fontColor=#333333;strokeColor=#666666;fontStyle=1" vertex="1" parent="1">
          <mxGeometry x="629.63" y="820" width="163.5" height="60" as="geometry" />
        </mxCell>
        <mxCell id="h8ZU28KvVE-qXobPjvcc-34" value="构建方法与组件间的关系（CONTAIN）" style="whiteSpace=wrap;html=1;fontSize=18;rounded=1;strokeWidth=2;fillColor=#f5f5f5;fontColor=#333333;strokeColor=#666666;fontStyle=1" vertex="1" parent="1">
          <mxGeometry x="624.63" y="660" width="173.5" height="80" as="geometry" />
        </mxCell>
      </root>
    </mxGraphModel>
  </diagram>
</mxfile>
